{
  "accessors": [
    {
      "bufferView": 2,
      "componentType": 5126,
      "count": 26043,
      "max": [
        26.573318481445313,
        37.39179611206055,
        93.4742431640625
      ],
      "min": [
        -33.9178466796875,
        -32.797607421875,
        3.0950303077697754
      ],
      "type": "VEC3"
    },
    {
      "bufferView": 2,
      "byteOffset": 312516,
      "componentType": 5126,
      "count": 26043,
      "max": [
        0.9999498724937439,
        0.9999315738677979,
        0.999971330165863
      ],
      "min": [
        -0.9999161958694458,
        -0.9999988675117493,
        -0.999975860118866
      ],
      "type": "VEC3"
    },
    {
      "bufferView": 1,
      "componentType": 5126,
      "count": 26043,
      "max": [
        0.9955759048461914,
        0.9962009787559509
      ],
      "min": [
        0.004904666915535927,
        0.006313239689916372
      ],
      "type": "VEC2"
    },
    {
      "bufferView": 1,
      "byteOffset": 208344,
      "componentType": 5126,
      "count": 26043,
      "max": [
        0.9955759048461914,
        0.9962009787559509
      ],
      "min": [
        0.004904666915535927,
        0.006313239689916372
      ],
      "type": "VEC2"
    },
    {
      "bufferView": 0,
      "componentType": 5125,
      "count": 139332,
      "type": "SCALAR"
    },
    {
      "bufferView": 3,
      "componentType": 5126,
      "count": 901,
      "max": [
        30.0
      ],
      "min": [
        0.0
      ],
      "type": "SCALAR"
    },
    {
      "bufferView": 4,
      "componentType": 5126,
      "count": 901,
      "max": [
        0.4993917644023895,
        0.7071067690849304,
        0.7071067690849304,
        0.7071067690849304
      ],
      "min": [
        -0.7071067690849304,
        -0.4982517957687378,
        -0.4982517957687378,
        -0.4993917644023895
      ],
      "type": "VEC4"
    }
  ],
  "animations": [
    {
      "channels": [
        {
          "sampler": 0,
          "target": {
            "node": 4,
            "path": "rotation"
          }
        }
      ],
      "name": "Take 001",
      "samplers": [
        {
          "input": 5,
          "interpolation": "LINEAR",
          "output": 6
        }
      ]
    }
  ],
  "asset": {
    "extras": {
      "author": "YANG617 (https://sketchfab.com/YANG617)",
      "license": "CC-BY-4.0 (http://creativecommons.org/licenses/by/4.0/)",
      "source": "https://sketchfab.com/3d-models/cartoongirl-86d9a4561bc74d6f8d9c53643968e63e",
      "title": "cartoongirl"
    },
    "generator": "Sketchfab-10.79.0",
    "version": "2.0"
  },
  "bufferViews": [
    {
      "buffer": 0,
      "byteLength": 557328,
      "name": "floatBufferViews",
      "target": 34963
    },
    {
      "buffer": 0,
      "byteLength": 416688,
      "byteOffset": 557328,
      "byteStride": 8,
      "name": "floatBufferViews",
      "target": 34962
    },
    {
      "buffer": 0,
      "byteLength": 625032,
      "byteOffset": 974016,
      "byteStride": 12,
      "name": "floatBufferViews",
      "target": 34962
    },
    {
      "buffer": 0,
      "byteLength": 3604,
      "byteOffset": 1599048,
      "name": "floatBufferViews"
    },
    {
      "buffer": 0,
      "byteLength": 14416,
      "byteOffset": 1602652,
      "byteStride": 16,
      "name": "floatBufferViews"
    }
  ],
  "buffers": [
    {
      "byteLength": 1617068,
      "uri": "scene.bin"
    }
  ],
  "extensionsRequired": [
    "KHR_materials_pbrSpecularGlossiness"
  ],
  "extensionsUsed": [
    "KHR_materials_pbrSpecularGlossiness"
  ],
  "images": [
    {
      "uri": "textures/Material_195_diffuse.png"
    },
    {
      "uri": "textures/Material_195_specularGlossiness.png"
    },
    {
      "uri": "textures/Material_195_emissive.png"
    },
    {
      "uri": "textures/Material_195_occlusion.png"
    }
  ],
  "materials": [
    {
      "alphaCutoff": 0.5692879059220458,
      "alphaMode": "MASK",
      "doubleSided": true,
      "emissiveFactor": [
        1.0,
        1.0,
        1.0
      ],
      "emissiveTexture": {
        "index": 2
      },
      "extensions": {
        "KHR_materials_pbrSpecularGlossiness": {
          "diffuseFactor": [
            1.0,
            1.0,
            1.0,
            1.0
          ],
          "diffuseTexture": {
            "index": 0
          },
          "glossinessFactor": 0.612,
          "specularFactor": [
            0.45315737520552046,
            0.45315737520552046,
            0.45315737520552046
          ],
          "specularGlossinessTexture": {
            "index": 1
          }
        }
      },
      "name": "Material_195",
      "occlusionTexture": {
        "index": 3,
        "strength": 0.17811138140322352
      }
    }
  ],
  "meshes": [
    {
      "name": "Object12_Material #195_0",
      "primitives": [
        {
          "attributes": {
            "NORMAL": 1,
            "POSITION": 0,
            "TEXCOORD_0": 2,
            "TEXCOORD_1": 3
          },
          "indices": 4,
          "material": 0,
          "mode": 4
        }
      ]
    }
  ],
  "nodes": [
    {
      "children": [
        1
      ],
      "matrix": [
        0.01467703003436327,
        0.0,
        0.0,
        0.0,
        0.0,
        3.258955335453011e-18,
        -0.01467703003436327,
        0.0,
        0.0,
        0.01467703003436327,
        3.258955335453011e-18,
        0.0,
        0.0,
        0.0,
        0.0,
        1.0
      ],
      "name": "Sketchfab_model"
    },
    {
      "children": [
        2
      ],
      "matrix": [
        1.0,
        0.0,
        0.0,
        0.0,
        0.0,
        0.0,
        1.0,
        0.0,
        0.0,
        -1.0,
        0.0,
        0.0,
        0.0,
        0.0,
        0.0,
        1.0
      ],
      "name": "cartoongirl.FBX"
    },
    {
      "children": [
        3
      ],
      "name": "Object_2"
    },
    {
      "children": [
        4
      ],
      "name": "RootNode"
    },
    {
      "children": [
        5
      ],
      "name": "Object12",
      "rotation": [
        -0.7071068286895752,
        -0.0,
        0.0,
        0.7071068286895752
      ]
    },
    {
      "children": [
        6
      ],
      "matrix": [
        1.0,
        0.0,
        -0.0,
        0.0,
        0.0,
        1.0,
        0.0,
        0.0,
        0.0,
        0.0,
        1.0,
        0.0,
        -6.385786122109494e-08,
        1.4608975648880005,
        6.385786122109494e-08,
        1.0
      ],
      "name": "Object_5"
    },
    {
      "mesh": 0,
      "name": "Object12_Material #195_0"
    }
  ],
  "samplers": [
    {
      "magFilter": 9729,
      "minFilter": 9987,
      "wrapS": 10497,
      "wrapT": 10497
    }
  ],
  "scene": 0,
  "scenes": [
    {
      "name": "Sketchfab_Scene",
      "nodes": [
        0
      ]
    }
  ],
  "textures": [
    {
      "sampler": 0,
      "source": 0
    },
    {
      "sampler": 0,
      "source": 1
    },
    {
      "sampler": 0,
      "source": 2
    },
    {
      "sampler": 0,
      "source": 3
    }
  ]
}
